<svg width="115" height="79" viewBox="0 0 115 79" fill="none" xmlns="http://www.w3.org/2000/svg">
<path d="M114.437 64.012C114.437 64.2197 114.314 64.3236 114.067 64.3236L110.79 64.289V70.6818C110.79 71.8742 111.079 72.582 111.656 72.8051C111.833 72.8743 112.04 72.9089 112.279 72.9089C112.517 72.9089 112.733 72.8704 112.925 72.7935C113.125 72.7089 113.302 72.6204 113.456 72.5281C113.61 72.4358 113.74 72.3512 113.848 72.2742C113.956 72.1896 114.056 72.1473 114.148 72.1473C114.248 72.1473 114.337 72.2012 114.414 72.3089C114.49 72.4166 114.529 72.5243 114.529 72.632C114.529 72.9012 114.187 73.2243 113.502 73.6013C112.979 73.8936 112.321 74.0398 111.529 74.0398C110.736 74.0398 110.117 73.759 109.671 73.1974C109.225 72.6281 109.002 71.8434 109.002 70.8434V64.2544H108.298C107.744 64.2544 107.467 64.112 107.467 63.8274C107.467 63.6197 107.621 63.4774 107.928 63.4004C108.236 63.3235 108.501 63.1889 108.725 62.9966C108.948 62.7966 109.128 62.5735 109.267 62.3273C109.413 62.0734 109.528 61.8119 109.613 61.5426C109.698 61.2734 109.775 61.0272 109.844 60.8041C110.013 60.2963 110.205 60.0425 110.421 60.0425C110.667 60.0425 110.79 60.2617 110.79 60.7002V63.3081L114.033 63.2389C114.194 63.2389 114.321 63.4312 114.414 63.8159C114.429 63.9005 114.437 63.9659 114.437 64.012Z" fill="#172135"/>
<path d="M94.5305 77.8016L95.4998 77.8824C95.5998 77.8824 95.6806 77.8593 95.7421 77.8132C95.8037 77.767 95.8537 77.6593 95.8921 77.4901C95.9614 77.1823 95.996 76.5054 95.996 75.4591V66.6315C95.996 65.9083 95.9383 65.4391 95.8229 65.2237C95.7075 65.0006 95.5844 64.8506 95.4536 64.7736C95.3228 64.6967 95.1113 64.6352 94.819 64.589C94.5343 64.5428 94.392 64.4236 94.392 64.2313C94.392 64.0543 94.5882 63.9274 94.9805 63.8505C95.9037 63.6582 96.5383 63.462 96.8845 63.262C97.3538 63.0004 97.6692 62.8696 97.8307 62.8696C98.0077 62.8696 98.0961 62.9581 98.0961 63.135C98.0961 63.2197 98.0769 63.3081 98.0385 63.4004C98.0077 63.4928 97.9731 63.6005 97.9346 63.7235C97.8807 63.9236 97.8384 64.3044 97.8077 64.8659C98.7462 63.5351 99.9309 62.8696 101.362 62.8696C102.816 62.8696 103.974 63.3889 104.835 64.4274C105.666 65.4352 106.081 66.743 106.081 68.3508C106.081 69.9279 105.566 71.2665 104.535 72.3666C103.497 73.482 102.212 74.0398 100.681 74.0398C99.5732 74.0398 98.6077 73.7474 97.7846 73.1628V75.4591C97.7846 76.9131 97.8461 77.6978 97.9692 77.8132C98.0231 77.8593 98.0923 77.8824 98.1769 77.8824L99.7232 77.7555C99.8771 77.7555 100 77.8016 100.092 77.8939C100.185 77.9939 100.231 78.0978 100.231 78.2055C100.231 78.5363 99.9501 78.7017 99.3886 78.7017L96.9537 78.5286C96.5614 78.5286 96.1883 78.5555 95.8344 78.6094C95.4882 78.6709 95.169 78.7017 94.8767 78.7017C94.5843 78.7017 94.3805 78.6478 94.2651 78.5401C94.1574 78.4401 94.1035 78.3324 94.1035 78.217C94.1035 78.1016 94.142 78.0016 94.2189 77.917C94.2958 77.8401 94.3997 77.8016 94.5305 77.8016ZM97.7846 71.2011C98.2385 72.1396 98.9885 72.7551 100.035 73.0474C100.366 73.1397 100.719 73.1859 101.096 73.1859C101.473 73.1859 101.85 73.1051 102.227 72.9435C102.612 72.7743 102.947 72.5166 103.231 72.1704C103.854 71.4088 104.166 70.3472 104.166 68.9855C104.166 67.47 103.839 66.2584 103.185 65.3506C102.57 64.489 101.796 64.0582 100.866 64.0582C99.9117 64.0582 99.0731 64.4736 98.35 65.3044C98.1269 65.566 97.9384 65.8583 97.7846 66.1814V71.2011Z" fill="#172135"/>
<path d="M93.0424 72.205C93.2654 72.205 93.377 72.3089 93.377 72.5166C93.377 72.7166 93.1539 72.9089 92.7077 73.0935C92.2615 73.2782 91.95 73.4474 91.773 73.6013C91.5961 73.7474 91.4653 73.8551 91.3807 73.9244C91.2961 74.0013 91.196 74.0398 91.0807 74.0398C90.8499 74.0398 90.6575 73.9436 90.5037 73.7513C90.3498 73.559 90.1421 73.1474 89.8806 72.5166C89.4421 73.0166 88.9074 73.3974 88.2766 73.659C87.6534 73.9128 87.0342 74.0398 86.4187 74.0398C85.2571 74.0398 84.357 73.7436 83.7185 73.1512C83.08 72.5589 82.7607 71.7473 82.7607 70.7164C82.7607 69.6856 83.2415 68.8509 84.2032 68.2124C85.1725 67.5662 86.4072 67.2431 87.9073 67.2431C88.3535 67.2431 88.942 67.32 89.6728 67.4739V66.5738C89.6728 64.5967 88.8382 63.6082 87.1688 63.6082C86.2841 63.6082 85.6341 64.0159 85.2186 64.8313C84.8571 65.5622 84.5032 65.9276 84.157 65.9276C83.9031 65.9276 83.68 65.8545 83.4877 65.7083C83.3031 65.5622 83.2108 65.3775 83.2108 65.1544C83.2108 64.9313 83.3262 64.6852 83.557 64.4159C83.7877 64.139 84.0955 63.8889 84.4801 63.6658C85.3879 63.135 86.3841 62.8696 87.4688 62.8696C89.3921 62.8696 90.6345 63.4966 91.196 64.7506C91.4038 65.1967 91.5076 65.7429 91.5076 66.3891V70.9934C91.5076 71.5857 91.5653 71.9665 91.6807 72.1358C91.7961 72.305 91.9576 72.3896 92.1654 72.3896C92.3731 72.3896 92.5423 72.3589 92.6731 72.2973C92.8039 72.2358 92.927 72.205 93.0424 72.205ZM89.6728 68.547C89.119 68.2316 88.4189 68.0739 87.5727 68.0739C86.7264 68.0739 86.0456 68.2855 85.5302 68.7086C85.0225 69.1317 84.7686 69.701 84.7686 70.4164C84.7686 71.1241 84.9648 71.7165 85.3571 72.1935C85.7494 72.6627 86.2533 72.8974 86.8688 72.8974C88.1843 72.8974 89.1305 72.4666 89.7075 71.605C89.6844 71.3896 89.6728 71.1511 89.6728 70.8895V68.547Z" fill="#172135"/>
<path d="M65.3819 73.9244C64.8819 73.9244 64.6318 73.7821 64.6318 73.4974C64.6318 73.2743 64.7703 73.1628 65.0472 73.1628L65.6127 73.2205C66.0743 73.2205 66.3858 72.9628 66.5474 72.4473C66.6782 72.0088 66.7435 71.2242 66.7435 70.0933V61.9465C66.7435 60.8156 66.6897 60.0771 66.582 59.7309C66.4743 59.377 66.3435 59.1386 66.1897 59.0155C66.0435 58.8847 65.8512 58.8193 65.6127 58.8193L65.0472 58.8655C64.7703 58.8655 64.6318 58.7539 64.6318 58.5308C64.6318 58.2462 64.8434 58.1039 65.2665 58.1039C65.6896 58.1039 66.0589 58.1346 66.3743 58.1962C66.6897 58.2577 67.0013 58.2885 67.309 58.2885C68.1244 58.2885 68.8014 58.25 69.3399 58.1731C70.1554 58.0577 71.09 58 72.144 58C73.2056 58 74.2595 58.1885 75.3058 58.5654C76.3597 58.9424 77.2636 59.477 78.0175 60.1694C79.6254 61.6388 80.4293 63.5697 80.4293 65.9622C80.4293 68.2316 79.6407 70.1202 78.0637 71.628C76.4328 73.1974 74.2942 73.9821 71.6478 73.9821C71.0093 73.9821 70.39 73.9551 69.7899 73.9013C68.6745 73.8013 67.8667 73.7513 67.3667 73.7513L65.3819 73.9244ZM68.5552 68.4316C68.5552 69.801 68.5898 71.0741 68.6591 72.2512C69.6822 72.782 70.8323 73.0474 72.1094 73.0474C73.0402 73.0474 74.0057 72.8281 75.0058 72.3896C76.5905 71.6973 77.6252 70.4587 78.1099 68.6739C78.2868 68.0431 78.3753 67.2277 78.3753 66.2276C78.3753 65.2198 78.2022 64.2467 77.856 63.3081C77.5175 62.3619 77.0405 61.5657 76.4251 60.9195C75.1712 59.5886 73.4826 58.9232 71.3593 58.9232C69.8438 58.9232 68.9745 59.1232 68.7514 59.5232C68.636 59.7386 68.5745 59.9848 68.5668 60.2617C68.5591 60.531 68.5552 60.7964 68.5552 61.0579V68.4316Z" fill="#172135"/>
<path d="M52.0312 68.6278C52.0312 67.8816 52.1659 67.1584 52.4351 66.4584C52.7044 65.7583 53.0852 65.1429 53.5775 64.6121C54.6545 63.4504 55.997 62.8696 57.6048 62.8696C59.3895 62.8696 60.7627 63.4043 61.7243 64.4736C62.5937 65.4429 63.0283 66.7007 63.0283 68.247C63.0283 69.8087 62.509 71.1588 61.4705 72.2973C60.4089 73.459 59.0703 74.0398 57.4548 74.0398C55.67 74.0398 54.3007 73.5051 53.3467 72.4358C52.4697 71.4665 52.0312 70.1972 52.0312 68.6278ZM53.9814 68.1431C53.9814 68.897 54.0853 69.6009 54.293 70.2548C54.5007 70.9087 54.7853 71.4511 55.1469 71.8819C55.8623 72.7589 56.7662 73.1974 57.8586 73.1974C58.828 73.1974 59.6165 72.8127 60.2242 72.0435C60.855 71.2434 61.1705 70.2125 61.1705 68.9509C61.1705 67.2815 60.7858 65.9737 60.0165 65.0275C59.2934 64.1582 58.3856 63.7235 57.2932 63.7235C56.3239 63.7235 55.5354 64.1082 54.9276 64.8775C54.2968 65.6776 53.9814 66.7661 53.9814 68.1431Z" fill="#172135"/>
<path d="M43.3415 73.9244C42.8261 73.9244 42.5684 73.7821 42.5684 73.4974C42.5684 73.2743 42.7107 73.1628 42.9953 73.1628L43.5723 73.2205C43.7492 73.2205 43.8954 73.1897 44.0108 73.1282C44.1262 73.0589 44.2146 72.9166 44.2762 72.7012C44.3993 72.3089 44.4608 71.4396 44.4608 70.0933V66.643C44.4608 65.8583 44.4108 65.3698 44.3108 65.1775C44.2185 64.9775 44.1031 64.8429 43.9646 64.7736C43.8338 64.6967 43.6146 64.6352 43.3069 64.589C43.0069 64.5428 42.8568 64.4236 42.8568 64.2313C42.8568 64.0543 43.053 63.9274 43.4454 63.8505C44.3608 63.6582 44.9916 63.4658 45.3378 63.2735C45.8071 63.0043 46.1263 62.8696 46.2956 62.8696C46.4725 62.8696 46.561 62.9581 46.561 63.135C46.561 63.2197 46.5418 63.3081 46.5033 63.4004C46.4725 63.4928 46.4379 63.6043 46.3994 63.7351C46.3379 63.9966 46.2917 64.489 46.261 65.2121C46.9303 64.089 47.738 63.3889 48.6842 63.112C48.9612 63.0273 49.2689 62.985 49.6074 62.985C49.9536 62.985 50.2574 63.1081 50.519 63.3543C50.7883 63.6005 50.9229 63.862 50.9229 64.139C50.9229 64.4159 50.8921 64.6198 50.8306 64.7506C50.769 64.8813 50.6921 64.9929 50.5998 65.0852C50.3998 65.2852 50.219 65.3852 50.0574 65.3852C49.9036 65.3852 49.7843 65.3468 49.6997 65.2698C49.6151 65.1852 49.5189 65.0352 49.4112 64.8198C49.2189 64.4351 49.0035 64.2428 48.765 64.2428C48.5265 64.2428 48.2996 64.2967 48.0842 64.4044C47.8688 64.5044 47.6534 64.6582 47.438 64.8659C46.9687 65.3044 46.5725 65.9006 46.2494 66.6546V70.0933C46.2494 71.555 46.2879 72.4166 46.3648 72.6781C46.4494 72.932 46.5495 73.0858 46.6648 73.1397C46.7879 73.1859 46.9533 73.2089 47.161 73.2089L48.188 73.1166C48.3419 73.1166 48.465 73.1551 48.5573 73.232C48.6496 73.3012 48.6958 73.3897 48.6958 73.4974C48.6958 73.7821 48.415 73.9244 47.8534 73.9244L45.4186 73.7513C45.0263 73.7513 44.6531 73.7782 44.2993 73.8321C43.9531 73.8936 43.6338 73.9244 43.3415 73.9244Z" fill="#172135"/>
<path d="M41.0455 72.2281C41.2686 72.2281 41.3801 72.3281 41.3801 72.5281C41.3801 72.6358 41.3301 72.7281 41.2301 72.8051C41.1378 72.882 40.9917 72.9628 40.7916 73.0474C40.5916 73.1243 40.4339 73.1897 40.3185 73.2436C40.2031 73.2974 40.0954 73.3513 39.9954 73.4051C39.8339 73.4897 39.6569 73.5974 39.4646 73.7282C39.1415 73.9359 38.9184 74.0398 38.7953 74.0398C38.6799 74.0398 38.5722 74.009 38.4722 73.9475C38.3799 73.8936 38.2837 73.7898 38.1837 73.6359C37.9529 73.2743 37.8299 72.7435 37.8145 72.0435C37.1606 72.9666 36.322 73.5551 35.2989 73.809C34.9835 73.8859 34.6142 73.9244 34.1911 73.9244C33.768 73.9244 33.3295 73.8551 32.8756 73.7167C32.4294 73.5705 32.0448 73.3359 31.7217 73.0128C31.0293 72.3435 30.6831 71.328 30.6831 69.9664V66.643C30.6831 65.9045 30.637 65.4237 30.5446 65.2006C30.46 64.9775 30.3639 64.8275 30.2562 64.7506C30.1562 64.6736 30.0215 64.6198 29.8523 64.589C29.5061 64.5121 29.333 64.3851 29.333 64.2082C29.333 64.0159 29.5292 63.8813 29.9215 63.8043C30.7908 63.6274 31.3678 63.4543 31.6524 63.285C32.0602 63.0543 32.3409 62.9389 32.4948 62.9389C32.6487 62.9389 32.7256 63.0273 32.7256 63.2043C32.7256 63.2889 32.7064 63.3774 32.6679 63.4697C32.514 63.8851 32.4333 64.4005 32.4256 65.016C32.4179 65.6314 32.414 66.143 32.414 66.5507V69.5048C32.414 71.1049 32.9295 72.0819 33.9603 72.4358C34.268 72.5358 34.5719 72.5858 34.8719 72.5858C35.1719 72.5858 35.4527 72.5512 35.7143 72.482C35.9835 72.405 36.2451 72.2896 36.499 72.1358C37.0452 71.7896 37.4798 71.2819 37.8029 70.6126L37.8375 66.3891C37.8375 65.7352 37.7799 65.316 37.6645 65.1314C37.5491 64.939 37.4221 64.8121 37.2837 64.7506C37.1452 64.689 36.9259 64.6352 36.6259 64.589C36.3336 64.5428 36.1874 64.4198 36.1874 64.2197C36.1874 64.0428 36.372 63.9159 36.7413 63.8389C37.1183 63.762 37.4644 63.6697 37.7799 63.562C38.0953 63.4466 38.3722 63.3389 38.6107 63.2389C38.8569 63.1389 39.0569 63.0543 39.2107 62.985C39.3723 62.9081 39.4838 62.8696 39.5454 62.8696C39.7223 62.8696 39.8108 62.9581 39.8108 63.135C39.8108 63.2197 39.7916 63.3081 39.7531 63.4004C39.5992 63.8159 39.5185 64.3428 39.5108 64.9813C39.5031 65.6199 39.4992 66.143 39.4992 66.5507V70.878C39.4992 71.4703 39.5492 71.8473 39.6492 72.0088C39.8031 72.2627 40.0223 72.3896 40.307 72.3896L41.0455 72.2281Z" fill="#172135"/>
<path d="M19.4666 72.4589C19.0204 71.9588 18.6742 71.3703 18.428 70.6934C18.1896 70.0164 18.0703 69.2663 18.0703 68.4432C18.0703 67.6123 18.2126 66.8507 18.4973 66.1584C18.7819 65.466 19.1742 64.8736 19.6743 64.3813C20.7128 63.3581 21.9937 62.8466 23.5169 62.8466C24.7786 62.8466 25.7979 63.262 26.5749 64.0928C27.3134 64.8929 27.6826 65.8814 27.6826 67.0584C27.6826 67.4431 27.6288 67.7085 27.5211 67.8547C27.4211 67.9931 27.2941 68.0778 27.1403 68.1085C26.9864 68.1316 26.7749 68.1547 26.5056 68.1778C26.2364 68.1931 25.9094 68.2124 25.5248 68.2355C25.1401 68.2585 24.7093 68.2816 24.2324 68.3047C23.7631 68.3278 23.2823 68.3547 22.7899 68.3855C21.6591 68.4547 20.7513 68.5239 20.0666 68.5932C20.2359 70.6626 21.0282 72.005 22.4437 72.6204C22.9053 72.8204 23.3977 72.9205 23.9208 72.9205C25.0286 72.9205 25.9056 72.5974 26.5518 71.9511C26.8287 71.6742 27.0403 71.5357 27.1864 71.5357C27.4634 71.5357 27.6019 71.7011 27.6019 72.0319C27.6019 72.2012 27.4865 72.405 27.2557 72.6435C27.0249 72.882 26.6941 73.1282 26.2633 73.382C25.5017 73.8205 24.6132 74.0398 23.5977 74.0398C22.5822 74.0398 21.7514 73.9013 21.1052 73.6244C20.4667 73.3397 19.9205 72.9512 19.4666 72.4589ZM20.0436 67.7393C23.6515 67.5546 25.5517 67.3585 25.744 67.1508C25.8133 67.0738 25.8479 66.8469 25.8479 66.4699C25.8479 66.093 25.7748 65.7276 25.6286 65.3737C25.4825 65.0121 25.2863 64.7044 25.0401 64.4505C24.5324 63.9351 23.9016 63.6774 23.1476 63.6774C22.2937 63.6774 21.5744 64.0351 20.9898 64.7506C20.3743 65.4968 20.0589 66.493 20.0436 67.7393Z" fill="#172135"/>
<path d="M0.750061 73.9243C0.25002 73.9243 0 73.782 0 73.4974C0 73.2743 0.138473 73.1627 0.415419 73.1627L0.980849 73.2204C1.44243 73.2204 1.75014 72.9627 1.904 72.4473C2.04247 72.0088 2.11171 71.2241 2.11171 70.0933V61.9695C2.11171 60.831 2.05786 60.0924 1.95016 59.754C1.84246 59.4078 1.71168 59.1731 1.55782 59.0501C1.41165 58.9193 1.21933 58.8539 0.980849 58.8539L0.415419 58.9116C0.138473 58.9116 0 58.7962 0 58.5654C0 58.2654 0.25002 58.1154 0.750061 58.1154L2.26172 58.2885C2.58483 58.2885 2.87331 58.2654 3.12718 58.2192L13.755 70.5779V61.9464C13.755 60.8233 13.6934 60.0848 13.5703 59.7309C13.4549 59.377 13.3203 59.1385 13.1665 59.0154C13.0126 58.8847 12.8126 58.8193 12.5664 58.8193L12.001 58.8654C11.724 58.8654 11.5856 58.7539 11.5856 58.5308C11.5856 58.2461 11.8356 58.1038 12.3356 58.1038C12.5279 58.1038 12.7857 58.1307 13.1088 58.1846C13.5165 58.2538 13.8857 58.2885 14.2165 58.2885C14.5473 58.2885 14.8704 58.2577 15.1859 58.1961C15.5013 58.1346 15.8705 58.1038 16.2936 58.1038C16.7167 58.1038 16.9283 58.2461 16.9283 58.5308C16.9283 58.7539 16.7898 58.8654 16.5129 58.8654L15.9475 58.8193C15.4782 58.8193 15.1666 59.077 15.0128 59.5924C14.882 60.0001 14.8166 60.7848 14.8166 61.9464V73.6012C14.8166 73.8628 14.7935 74.0359 14.7474 74.1205C14.7012 74.2051 14.6281 74.2474 14.5281 74.2474C14.3896 74.2474 14.1704 74.0859 13.8704 73.7628L3.23103 61.4387V70.0933C3.23103 71.2549 3.28104 72.005 3.38105 72.3434C3.48875 72.6742 3.61568 72.905 3.76185 73.0358C3.9157 73.1589 4.11572 73.2204 4.36189 73.2204L4.91579 73.1627C5.19273 73.1627 5.3312 73.2743 5.3312 73.4974C5.3312 73.782 5.10811 73.9243 4.66192 73.9243C4.22342 73.9243 3.83108 73.8936 3.4849 73.832C3.14641 73.7782 2.81561 73.7513 2.49251 73.7513C2.16941 73.7513 1.85015 73.7782 1.53474 73.832C1.22702 73.8936 0.965463 73.9243 0.750061 73.9243Z" fill="#172135"/>
<path d="M47.2696 51.1125C46.027 51.1125 45.0196 50.1052 45.0196 48.8625C45.0196 47.6199 46.027 46.6125 47.2696 46.6125C48.5123 46.6125 49.5196 47.6199 49.5196 48.8625C49.5196 50.1052 48.5123 51.1125 47.2696 51.1125Z" stroke="#151515" stroke-width="0.5"/>
<path d="M24.5 47L55.5 0.5L87.5 48.5H59L36 12.7564C27.0636 26.161 27.6699 25.2516 24.1709 30.5M30.6709 20.75L46 47" stroke="#151515" stroke-width="0.5"/>
<path d="M93.2042 48.5L75 21" stroke="#151515" stroke-width="0.5" stroke-dasharray="1.5 1.5"/>
<rect x="36.0303" y="20.3232" width="1.45713" height="1.45713" transform="rotate(45 36.0303 20.3232)" fill="#263758"/>
</svg>
